<?xml version="1.0" standalone="no"?>
<!DOCTYPE svg PUBLIC "-//W3C//DTD SVG 20010904//EN"
 "http://www.w3.org/TR/2001/REC-SVG-20010904/DTD/svg10.dtd">
<svg version="1.0" xmlns="http://www.w3.org/2000/svg"
 width="1493.000000pt" height="1501.000000pt" viewBox="0 0 1493.000000 1501.000000"
 preserveAspectRatio="xMidYMid meet">

<g transform="translate(0.000000,1501.000000) scale(0.100000,-0.100000)"
fill="#000000" stroke="none">
<path fill="#ff0000" d="M7080 14413 c-305 -17 -854 -96 -1145 -164 -775 -181 -1353 -420
-2140 -883 -96 -56 -335 -221 -485 -335 -547 -413 -1127 -1003 -1476 -1501
-442 -630 -712 -1148 -947 -1820 -147 -420 -243 -824 -316 -1332 -51 -351 -55
-426 -55 -958 1 -526 3 -560 60 -965 121 -868 438 -1784 873 -2520 132 -223
146 -246 250 -398 312 -456 615 -810 1006 -1176 357 -334 611 -536 975 -773
325 -213 885 -504 1220 -636 295 -116 451 -167 785 -258 425 -115 789 -177
1345 -226 185 -16 721 -16 910 0 522 46 835 93 1175 178 562 141 912 265 1395
495 505 241 1064 605 1490 970 226 194 688 660 852 859 559 682 966 1400 1229
2170 227 663 356 1320 379 1925 10 290 -4 935 -25 1115 -78 679 -202 1174
-469 1875 -131 343 -443 926 -683 1279 -465 682 -1052 1286 -1718 1771 -598
436 -1407 833 -2094 1030 -494 141 -887 214 -1440 265 -172 16 -282 20 -555
18 -188 -1 -366 -3 -396 -5z m324 -328 c20 -54 183 -1352 170 -1365 -10 -10
-241 -50 -291 -50 -22 0 -36 6 -43 20 -9 17 -76 497 -110 795 -22 191 -26 178
-110 -405 -50 -344 -65 -429 -80 -444 -12 -13 -41 -21 -92 -26 -40 -5 -94 -11
-119 -15 -42 -7 -48 -5 -67 20 -12 15 -22 33 -22 40 0 7 -15 46 -34 86 -19 41
-87 200 -151 354 -123 293 -158 369 -175 380 -14 9 -15 14 39 -402 69 -528 67
-509 44 -522 -20 -10 -319 -39 -327 -30 -6 7 -163 1187 -173 1305 -6 70 -5 71
20 78 22 5 292 40 467 61 l45 5 49 -123 c152 -379 267 -651 282 -668 14 -16
19 -17 25 -6 4 7 26 166 48 352 58 485 59 487 68 496 11 11 76 23 293 53 206
29 236 30 244 11z m1183 -90 c329 -77 527 -359 510 -724 -13 -293 -150 -529
-378 -651 -86 -46 -158 -60 -300 -61 -153 0 -232 16 -349 73 -158 76 -287 240
-338 428 -24 90 -23 319 2 410 73 265 262 471 484 524 78 19 290 20 369 1z
m1100 -290 c49 -20 115 -50 148 -68 54 -29 60 -35 59 -62 -1 -17 -36 -106 -78
-200 -41 -93 -78 -185 -82 -203 l-7 -33 54 25 c30 13 163 76 296 141 l241 116
79 -26 c112 -38 325 -143 320 -158 -4 -13 -167 -88 -459 -213 -98 -42 -182
-82 -188 -89 -11 -14 5 -107 114 -654 36 -178 63 -328 60 -333 -10 -15 -32 -8
-214 71 -145 62 -186 84 -197 104 -11 23 -67 323 -106 574 -7 47 -16 74 -26
78 -18 7 -110 -37 -153 -73 -30 -26 -53 -69 -144 -275 -28 -64 -44 -89 -60
-93 -25 -6 -259 86 -299 118 -19 15 -24 26 -19 42 11 38 154 377 241 571 47
105 98 222 113 260 42 107 159 367 176 393 19 29 28 28 131 -13z m-4320 -97
c32 -11 74 -31 94 -44 43 -27 107 -98 134 -149 l20 -36 -28 -25 c-15 -13 -34
-24 -42 -24 -8 0 -54 -17 -102 -39 -48 -21 -105 -44 -126 -51 -37 -12 -40 -11
-65 18 -49 55 -141 67 -234 32 -89 -33 -136 -92 -123 -152 10 -43 49 -58 147
-57 46 0 108 4 138 9 248 40 440 34 523 -14 68 -40 140 -123 167 -191 20 -51
24 -79 24 -180 1 -107 -1 -125 -23 -165 -56 -108 -163 -204 -311 -279 -254
-129 -470 -145 -637 -45 -76 46 -98 67 -144 138 -46 71 -49 96 -11 118 32 19
275 118 288 118 6 0 28 -18 49 -41 78 -80 147 -97 250 -58 83 31 146 79 173
131 22 44 23 47 8 77 -35 67 -83 76 -281 55 -184 -19 -415 -22 -472 -6 -94 27
-195 127 -230 227 -12 33 -18 80 -18 140 0 81 3 97 32 155 31 64 123 166 188
211 62 42 187 100 267 123 113 34 261 36 345 4z m5757 -635 c71 -43 201 -137
211 -153 10 -15 -41 -100 -185 -310 -69 -102 -224 -330 -344 -508 -120 -178
-225 -326 -234 -329 -8 -4 -34 4 -56 16 -72 38 -209 135 -229 163 -24 32 -61
-28 307 515 379 560 439 643 462 643 3 0 34 -17 68 -37z m660 -474 c110 -106
126 -125 126 -153 0 -28 -48 -223 -180 -731 -17 -66 -29 -128 -28 -139 2 -15
42 20 168 150 303 311 387 394 401 394 20 0 229 -215 229 -235 0 -10 -35 -54
-77 -99 -43 -45 -228 -239 -412 -431 -410 -431 -445 -465 -466 -465 -19 0
-241 213 -260 250 -11 22 -6 52 50 260 117 434 174 654 171 658 -4 4 -55 -46
-346 -341 -123 -125 -231 -227 -240 -227 -17 0 -188 156 -220 200 l-20 28 41
49 c60 69 855 898 891 928 16 14 33 25 37 25 5 0 65 -54 135 -121z m-8139 45
c33 -8 103 -35 155 -61 81 -39 109 -60 191 -142 112 -112 179 -214 222 -339
27 -78 30 -100 31 -212 0 -178 -35 -279 -142 -402 -110 -126 -192 -188 -320
-241 -75 -31 -80 -32 -232 -32 -173 1 -208 10 -328 83 -304 185 -467 506 -408
802 26 131 83 237 181 335 190 193 414 265 650 209z m4297 -229 c622 -60 1125
-201 1683 -469 222 -107 333 -170 540 -306 222 -147 324 -223 497 -372 976
-842 1563 -1961 1704 -3253 22 -206 22 -750 0 -960 -76 -717 -282 -1352 -641
-1975 -89 -154 -196 -320 -219 -339 -9 -8 -16 -18 -16 -24 0 -15 -138 -195
-153 -200 -18 -6 -290 257 -537 519 -320 340 -1622 1644 -1641 1644 -17 0
-408 392 -473 475 -66 83 -1210 1225 -1228 1225 -15 0 -2631 2617 -2877 2879
l-116 123 42 37 c94 84 425 303 619 410 262 145 644 307 920 391 400 121 755
184 1224 214 113 8 521 -4 672 -19z m-5566 -775 c204 -126 950 -624 1037 -693
20 -17 37 -37 37 -46 0 -9 -43 -81 -96 -159 l-95 -144 -82 7 c-462 35 -744 56
-801 62 -49 4 -67 3 -62 -5 3 -6 141 -101 306 -212 165 -111 314 -213 330
-227 l31 -25 -27 -47 c-62 -108 -149 -231 -163 -231 -21 0 -135 73 -650 418
-535 357 -500 333 -501 352 0 8 30 63 68 122 105 167 128 197 149 192 19 -4
851 -64 892 -64 18 0 21 3 13 13 -6 7 -155 109 -331 227 -177 118 -321 219
-321 224 0 22 180 276 196 276 2 0 33 -18 70 -40z m10323 -300 c162 -21 347
-148 452 -308 136 -207 165 -460 73 -642 -25 -52 -129 -170 -149 -170 -7 0
-31 24 -53 53 -48 63 -142 219 -142 236 0 6 11 38 25 71 29 68 32 125 10 196
-32 105 -132 195 -235 210 -169 26 -413 -113 -496 -281 -34 -68 -36 -80 -32
-139 13 -160 132 -292 275 -304 90 -8 91 -5 34 102 -28 51 -51 100 -51 108 0
15 98 83 173 119 48 24 49 24 64 4 28 -39 241 -381 262 -423 26 -52 24 -56
-60 -113 -111 -75 -514 -320 -537 -326 -29 -7 -54 16 -97 88 -51 87 -52 96
-15 134 32 33 36 65 8 65 -7 0 -41 13 -75 29 -119 57 -237 206 -291 368 -22
67 -25 96 -25 208 0 98 4 142 17 180 81 230 253 404 492 497 114 44 232 56
373 38z m-7937 -1888 c585 -586 1326 -1327 1647 -1646 1352 -1344 3934 -3928
4010 -4014 45 -51 81 -99 78 -105 -11 -36 -415 -313 -615 -422 -375 -205 -703
-341 -1060 -441 -490 -136 -934 -192 -1442 -181 -743 16 -1451 193 -2101 523
-91 47 -188 99 -215 116 -27 18 -65 41 -84 51 -87 48 -416 273 -518 355 -259
206 -581 523 -759 744 -529 658 -872 1391 -1027 2193 -57 295 -68 423 -73 835
-6 434 2 572 47 838 53 314 88 466 168 722 153 489 498 1150 773 1480 l50 61
30 -21 c16 -12 507 -501 1091 -1088z m-1407 -5147 c53 -60 104 -122 111 -138
17 -32 9 -64 -155 -575 -56 -172 -101 -314 -101 -317 0 -17 35 9 152 118 300
274 410 373 435 386 26 13 28 12 135 -100 59 -63 108 -117 108 -121 0 -18
-152 -166 -485 -473 -509 -469 -516 -475 -534 -475 -16 0 -114 95 -204 199
-33 37 -47 62 -47 83 0 16 40 149 89 296 113 338 183 563 177 570 -10 9 -50
-24 -216 -179 -206 -193 -339 -309 -366 -321 -17 -8 -29 -5 -54 13 -41 31
-190 198 -190 214 0 15 131 142 440 425 474 434 577 523 596 512 7 -4 56 -56
109 -117z m8355 -364 c70 -26 145 -74 159 -100 14 -25 -3 -46 -139 -171 l-100
-92 -51 17 c-99 33 -197 7 -277 -73 -60 -60 -96 -141 -96 -217 0 -135 140
-325 299 -405 57 -29 82 -36 146 -39 99 -4 147 18 229 106 64 68 100 146 100
216 0 41 -21 87 -41 87 -5 0 -43 -31 -85 -70 -41 -38 -81 -70 -89 -70 -7 0
-54 44 -103 97 l-91 97 142 136 c195 187 277 260 292 260 11 0 249 -242 469
-477 l58 -61 -18 -27 c-21 -33 -141 -135 -157 -135 -7 0 -30 12 -50 26 -21 14
-41 24 -43 21 -3 -3 -12 -36 -20 -74 -18 -90 -29 -115 -82 -196 -57 -87 -147
-162 -269 -224 l-95 -48 -183 -3 -183 -4 -104 51 c-212 104 -384 301 -443 511
-24 82 -27 281 -6 355 34 122 134 275 240 366 60 51 187 117 281 146 95 29
225 27 310 -6z m-7351 -652 c201 -32 390 -160 512 -347 75 -114 81 -143 77
-351 l-3 -178 -52 -104 c-122 -246 -300 -403 -519 -459 -202 -52 -425 5 -605
153 -178 147 -271 379 -239 593 40 265 217 513 449 629 132 66 248 86 380 64z
m6277 -129 c49 -81 87 -149 284 -500 48 -85 133 -236 189 -335 128 -224 153
-273 146 -286 -14 -22 -293 -179 -318 -179 -14 0 -104 53 -560 328 -120 73
-222 132 -227 132 -6 0 -10 -5 -10 -11 0 -13 80 -165 152 -287 26 -45 48 -85
48 -87 0 -3 18 -34 40 -70 41 -66 104 -188 120 -231 9 -21 5 -27 -33 -51 -65
-41 -226 -123 -241 -123 -19 0 -85 101 -186 285 -46 83 -117 209 -158 280
-154 264 -342 609 -342 626 0 28 269 189 315 189 24 0 81 -32 315 -174 278
-171 440 -263 473 -271 27 -7 27 -7 -19 71 -91 154 -327 569 -335 590 -10 28
11 47 116 109 122 72 149 86 165 83 8 -2 38 -41 66 -88z m-1200 -570 c12 -25
88 -232 169 -460 81 -228 176 -495 211 -592 35 -98 61 -184 58 -192 -3 -7 -31
-25 -62 -39 -77 -34 -273 -100 -278 -94 -3 3 -45 117 -94 253 -367 1029 -375
1052 -364 1063 16 16 283 110 309 108 25 -2 34 -10 51 -47z m-3635 -31 c66
-18 126 -38 133 -45 15 -14 26 -324 26 -730 0 -144 3 -270 6 -279 5 -13 13 -5
33 32 461 837 465 843 493 843 19 0 235 -52 295 -71 67 -21 63 -32 -136 -347
-65 -103 -182 -290 -261 -417 -79 -126 -184 -290 -233 -363 -77 -114 -92 -132
-115 -132 -34 0 -364 79 -376 90 -4 5 -12 48 -17 97 -10 105 -68 1136 -69
1243 -2 135 -7 124 50 117 27 -3 104 -20 171 -38z m3007 -165 c137 -30 207
-89 276 -233 l41 -86 0 -150 c0 -144 -1 -152 -28 -207 -32 -65 -115 -147 -188
-183 -59 -31 -159 -58 -309 -85 -63 -11 -125 -25 -137 -30 -29 -12 -30 -40 -2
-197 41 -240 41 -235 27 -249 -14 -14 -194 -58 -285 -70 -45 -5 -52 -4 -62 14
-14 26 -45 183 -132 667 -96 532 -106 592 -112 647 l-4 47 46 10 c25 5 163 30
306 56 143 25 287 52 320 59 66 15 147 11 243 -10z m-1388 -103 c44 -6 46 -8
67 -61 46 -117 444 -1343 438 -1349 -13 -12 -352 -6 -368 7 -8 7 -29 56 -46
110 -17 53 -35 104 -40 112 -6 9 -36 17 -83 21 -106 11 -360 10 -378 -1 -8 -5
-37 -55 -65 -112 l-50 -103 -130 -3 c-176 -4 -235 3 -235 29 0 22 66 195 135
354 23 55 85 201 137 325 52 124 139 330 193 458 l98 233 141 -7 c78 -4 161
-10 186 -13z"/>
<path fill="#ff0000" d="M8296 13659 c-56 -30 -121 -101 -156 -173 -60 -122 -65 -328 -10
-442 53 -109 135 -154 280 -154 66 0 82 4 121 28 24 16 57 44 73 63 64 76 125
248 126 354 0 54 -24 144 -55 204 -31 62 -93 116 -150 130 -73 18 -184 13
-229 -10z"/>
<path fill="#ff0000" d="M3380 12201 c-92 -30 -174 -104 -205 -184 -28 -74 -17 -168 30 -264
48 -97 161 -213 255 -263 56 -30 74 -35 135 -35 53 1 80 6 113 24 66 34 128
97 158 157 23 47 26 64 22 122 -11 157 -148 345 -307 419 -57 27 -156 39 -201
24z"/>
<path d="M8755 11724 c-16 -2 -77 -11 -133 -20 l-104 -17 7 -44 c7 -47 60
-231 69 -240 3 -3 40 0 83 6 43 6 141 14 218 18 668 29 1170 -316 1331 -915
24 -88 27 -115 28 -298 l1 -201 125 -17 c69 -10 159 -29 200 -42 195 -65 354
-209 450 -409 90 -188 107 -289 116 -711 l7 -314 145 0 144 0 -5 373 c-5 415
-10 452 -82 656 -65 186 -121 276 -258 418 -138 143 -252 214 -444 277 -92 30
-83 17 -103 161 -54 378 -204 683 -443 900 -220 199 -482 332 -759 386 -142
27 -475 46 -593 33z"/>
<path d="M7469 11293 c-18 -44 -15 -303 4 -408 52 -288 161 -504 321 -637 201
-166 547 -303 896 -352 63 -9 124 -19 135 -21 14 -3 30 -27 54 -82 103 -241
355 -494 626 -627 144 -71 237 -99 436 -131 384 -61 490 -86 552 -125 74 -47
79 -61 89 -237 4 -86 9 -157 11 -158 1 0 64 1 140 3 l137 4 0 178 c0 226 -13
277 -94 366 -120 132 -266 184 -700 249 -233 35 -303 53 -417 111 -313 157
-497 379 -555 669 l-17 85 -66 0 c-110 0 -341 19 -431 35 -193 35 -441 140
-569 240 -119 94 -201 232 -236 400 -10 44 -21 156 -25 248 -4 92 -10 170 -13
173 -5 5 -124 27 -214 39 -51 7 -53 6 -64 -22z"/>
<path fill="#000000" d="M8110 7696 l585 -584 841 5 841 6 6 481 c4 265 3 522 -1 571 l-7 90
-370 6 c-203 3 -845 7 -1425 8 l-1055 1 585 -584z"/>
<path fill="#000000" d="M10622 8274 c-45 -10 -46 -28 -47 -597 0 -467 2 -539 15 -547 8 -5
79 -10 158 -10 l142 0 0 563 c0 309 -4 568 -8 574 -8 13 -216 26 -260 17z"/>
<path fill="#000000" d="M11185 8272 l-40 -7 -7 -110 c-4 -60 -4 -318 -1 -572 l6 -463 153 0
154 0 0 563 c0 309 -4 568 -9 575 -9 15 -191 25 -256 14z"/>
<path fill="#000000" d="M9925 5879 l700 -701 310 5 c171 3 325 10 343 16 48 15 117 70 142
113 28 50 40 195 39 493 0 359 -13 604 -33 643 -20 39 -96 96 -151 113 -31 10
-275 14 -1045 16 l-1005 4 700 -702z"/>
<path fill="#000000" d="M3560 8271 l-175 -6 -7 -105 c-4 -58 -4 -315 -1 -572 l6 -468 993 0
994 0 0 564 c0 485 -2 565 -15 576 -11 9 -201 13 -817 15 -442 1 -882 -1 -978
-4z"/>
<path fill="#000000" d="M5593 8273 c-26 -3 -44 -10 -49 -21 -5 -9 -10 -268 -12 -574 l-3
-558 708 0 708 0 -585 579 -585 580 -70 -1 c-38 -1 -89 -3 -112 -5z"/>
<path fill="#000000" d="M6225 6580 c-459 -5 -482 -6 -525 -26 -45 -21 -107 -75 -135 -117
-20 -31 -27 -1010 -7 -1075 17 -57 72 -116 135 -146 l52 -24 570 -6 c627 -7
2109 5 2120 16 4 4 -2 47 -14 95 -25 104 -41 231 -41 328 l-1 70 -453 448
-454 447 -384 -2 c-210 -1 -599 -4 -863 -8z m1194 -163 c-14 -12 -107 -90
-205 -174 -98 -84 -199 -171 -223 -194 -41 -38 -43 -43 -27 -55 10 -7 100 -50
200 -95 261 -117 286 -130 286 -139 0 -10 -108 -56 -515 -219 -311 -124 -505
-194 -515 -185 -3 3 54 60 125 127 72 67 166 157 210 200 l80 79 -50 26 c-27
14 -113 53 -190 87 -181 80 -235 107 -235 117 0 12 49 34 284 130 453 184 633
258 701 287 84 37 111 39 74 8z"/>
<path d="M3375 6288 c-4 -95 -6 -352 -4 -571 4 -385 5 -399 24 -413 16 -13 52
-15 195 -12 l175 3 121 42 c210 73 418 103 713 103 240 0 377 -17 591 -75 69
-18 140 -36 158 -40 l32 -7 0 557 c0 476 -2 556 -14 561 -8 3 -70 -10 -138
-29 -329 -95 -643 -117 -978 -71 -103 14 -254 50 -419 99 -76 23 -100 25 -266
25 l-183 0 -7 -172z"/>
<path fill="#000000" d="M8526 5505 c12 -102 46 -251 62 -279 23 -39 58 -47 192 -44 l110 3
-185 185 -185 185 6 -50z"/>
<path fill="#ff0000" d="M4235 2836 c-113 -36 -172 -83 -255 -206 -61 -90 -83 -158 -84 -255
0 -94 21 -152 78 -208 93 -93 218 -118 326 -65 76 38 150 106 206 189 68 103
84 152 84 259 0 110 -13 143 -78 209 -79 79 -182 107 -277 77z"/>
<path fill="#ff0000" d="M8464 1974 c-7 -3 -41 -8 -75 -12 l-64 -7 -3 -35 c-3 -42 32 -229 50
-267 13 -26 18 -28 66 -26 84 4 222 40 260 70 79 60 83 183 8 253 -25 22 -36
25 -129 27 -56 1 -107 0 -113 -3z"/>
<path fill="#ff0000" d="M7211 1640 c-62 -162 -102 -283 -97 -296 5 -12 180 -25 234 -17 25 4
32 10 32 27 0 44 -106 396 -119 396 -4 0 -27 -49 -50 -110z"/>
</g>
</svg>
